<?xml version="1.0" encoding="utf-8"?>
<!-- Generator: Adobe Illustrator 24.1.1, SVG Export Plug-In . SVG Version: 6.00 Build 0)  -->
<svg version="1.1" id="Icons" xmlns="http://www.w3.org/2000/svg" xmlns:xlink="http://www.w3.org/1999/xlink" x="0px" y="0px"
	 viewBox="0 0 800 800" style="enable-background:new 0 0 800 800;" xml:space="preserve">
<style type="text/css">
	.st0{fill:#FFFFFF;}
</style>
<path class="st0" d="M400,50C207.5,50,50,207.5,50,400s157.5,350,350,350s350-157.5,350-350S592.5,50,400,50z M517.5,392.5
	c-5,5-10,7.5-17.5,7.5s-12.5-2.5-17.5-7.5L425,335v215c0,15-10,25-25,25s-25-10-25-25V335l-57.5,57.5c-10,10-25,10-35,0s-10-25,0-35
	l100-100c2.5-2.5,5-5,7.5-5c5-2.5,12.5-2.5,20,0c2.5,2.5,5,2.5,7.5,5l100,100C527.5,367.5,527.5,382.5,517.5,392.5z"/>
</svg>
